<svg width="10" height="16" viewBox="0 0 10 16" fill="none" xmlns="http://www.w3.org/2000/svg">
    <path fill-rule="evenodd" clip-rule="evenodd" d="M7.78377 8.66438C7.31489 8.30432 6.88873 7.77629 6.88131 7.61412C6.88131 7.31873 6.90565 7.17747 7.51668 6.66135C8.30667 5.99077 8.74173 5.10911 8.74173 4.17758C8.74173 3.33292 8.50372 2.58255 8.09864 2.05548H8.41291C8.4779 2.05548 8.54171 2.0336 8.59364 1.99241L9.47058 1.3035C9.57949 1.21887 9.6252 1.06796 9.58365 0.929919C9.54181 0.7922 9.42429 0.698242 9.29045 0.698242H5.36841C4.93929 0.698242 4.50334 0.780294 4.0754 0.939894C2.64619 1.47436 1.64668 2.79492 1.64668 4.15055C1.64668 6.07121 3.01892 7.52692 4.85322 7.57261C4.81732 7.72481 4.79921 7.87475 4.79921 8.0218C4.79921 8.31783 4.86836 8.5981 5.01081 8.86903H4.96036C3.21182 8.86903 1.63363 9.79928 1.03446 11.1835C0.878361 11.5436 0.798828 11.9075 0.798828 12.267C0.798828 12.6164 0.881625 12.9527 1.04396 13.2686C1.42055 13.9991 2.22923 14.5657 3.32222 14.865C3.88637 15.0194 4.49266 15.0982 5.12209 15.0982C5.68773 15.0982 6.22695 15.0191 6.72551 14.8627C8.27996 14.3733 9.2851 13.1325 9.2851 11.7003C9.28481 10.326 8.87735 9.50325 7.78377 8.66438ZM2.83047 11.8104C2.83047 10.8106 4.0018 9.93378 5.33695 9.93378H5.37285C5.66339 9.93764 5.9468 9.98398 6.21388 10.0728C6.29937 10.1367 6.38202 10.1978 6.4616 10.2566L6.47889 10.2694L6.48077 10.2708C7.09818 10.7269 7.50611 11.0283 7.61966 11.5118C7.64637 11.6337 7.65972 11.7557 7.65972 11.8738C7.65972 13.1187 6.80356 13.7497 5.11408 13.7497C3.83354 13.7497 2.83047 12.8983 2.83047 11.8104ZM4.83424 1.96925C4.52738 1.96925 4.25406 2.10568 4.04544 2.36406C3.72256 2.76338 3.58604 3.39567 3.67122 4.09906C3.82286 5.3572 4.67012 6.44447 5.51917 6.47278H5.53312H5.53371C5.85303 6.47278 6.12249 6.33635 6.33171 6.07733C6.65874 5.67318 6.80356 5.01 6.7178 4.30468C6.56526 3.04493 5.73581 1.99756 4.86896 1.96989L4.83424 1.96925Z" fill="#D72130"/>
</svg>
